<svg width="530" height="313" xmlns="http://www.w3.org/2000/svg" xmlns:xlink="http://www.w3.org/1999/xlink" overflow="hidden"><defs><filter id="fx0" x="-10%" y="-10%" width="120%" height="120%" filterUnits="userSpaceOnUse" primitiveUnits="userSpaceOnUse"><feComponentTransfer color-interpolation-filters="sRGB"><feFuncR type="discrete" tableValues="0 0"/><feFuncG type="discrete" tableValues="0 0"/><feFuncB type="discrete" tableValues="0 0"/><feFuncA type="linear" slope="0.4" intercept="0"/></feComponentTransfer><feGaussianBlur stdDeviation="1.77778 1.77778"/></filter><clipPath id="clip1"><rect x="393" y="282" width="530" height="313"/></clipPath><clipPath id="clip2"><rect x="17" y="-2" width="498" height="306"/></clipPath><clipPath id="clip3"><rect x="0" y="0" width="532" height="315"/></clipPath><clipPath id="clip4"><rect x="6" y="6" width="519" height="302"/></clipPath><clipPath id="clip5"><rect x="6" y="6" width="519" height="302"/></clipPath><clipPath id="clip6"><rect x="-29" y="6" width="590" height="355"/></clipPath><clipPath id="clip7"><rect x="-29" y="6" width="590" height="355"/></clipPath><clipPath id="clip8"><rect x="149" y="6" width="233" height="214"/></clipPath><clipPath id="clip9"><rect x="149" y="6" width="233" height="214"/></clipPath><clipPath id="clip10"><rect x="149" y="6" width="466" height="214"/></clipPath><clipPath id="clip11"><rect x="396" y="285" width="518" height="301"/></clipPath><clipPath id="clip12"><rect x="396" y="285" width="519" height="301"/></clipPath><clipPath id="clip13"><rect x="360" y="285" width="590" height="355"/></clipPath><clipPath id="clip14"><rect x="360" y="285" width="590" height="355"/></clipPath><clipPath id="clip15"><rect x="538" y="285" width="234" height="214"/></clipPath><clipPath id="clip16"><rect x="538" y="285" width="234" height="214"/></clipPath><clipPath id="clip17"><rect x="538" y="285" width="466" height="214"/></clipPath></defs><g clip-path="url(#clip1)" transform="translate(-393 -282)"><g clip-path="url(#clip2)" filter="url(#fx0)" transform="translate(392 281)"><g clip-path="url(#clip3)"><g clip-path="url(#clip4)"><g clip-path="url(#clip5)"><g clip-path="url(#clip6)"><g clip-path="url(#clip7)"><path d="M51.2456-34.9846C51.2456-29.5427 49.961-24.64 47.3918-20.2763 44.8227-15.9126 40.9438-12.0882 35.7554-8.80314 31.6447-6.1948 27.0578-4.06309 21.9946-2.40801 16.9315-0.752932 11.367 0.413183 5.30127 1.09033L9.39941-67.0742C15.9915-66.6485 21.7126-65.872 26.5627-64.7446 31.4128-63.6173 35.3669-62.1519 38.4248-60.3484 42.7109-57.8179 45.9193-54.436 48.0498-50.2026 50.1803-45.9691 51.2456-40.8965 51.2456-34.9846ZM39.6279-34.8906 39.6279-38.6504 34.2515-38.8384 33.7627-43.7637 38.9512-43.9517 38.7632-47.4106 33.1987-47.9746 31.958-58.8779C30.0781-59.7803 28.0353-60.5573 25.8296-61.209 23.6239-61.8607 21.2427-62.3745 18.686-62.7505L19.4756-5.56445C21.957-6.09082 24.3758-6.81771 26.7319-7.74512 29.0881-8.67253 31.369-9.77539 33.5747-11.0537L33.9507-25.2656 38.9512-25.5288 39.4399-29.3638 34.0635-29.5518 34.1387-34.5146ZM28.0103-35.0222C28.0103-32.8917 27.9413-30.8614 27.8035-28.9314 27.6656-27.0014 27.4588-25.1716 27.1831-23.4421L25.2656-24.4573C25.3158-25.2594 25.3471-26.074 25.3596-26.9011 25.3722-27.7283 25.3784-28.5805 25.3784-29.4578 25.3784-32.2901 25.2406-35.0347 24.9648-37.6917 24.6891-40.3485 24.2756-42.8927 23.7241-45.324L27.4463-45.324C27.6468-43.6446 27.7909-41.9464 27.8787-40.2295 27.9664-38.5125 28.0103-36.7768 28.0103-35.0222ZM110.381-32.1648C110.381-28.2022 109.818-24.4777 108.691-20.9915 107.563-17.5053 105.848-14.2448 103.543-11.21 101.039-7.89942 98.2148-5.41651 95.0715-3.76123 91.9281-2.10596 88.4278-1.27832 84.5706-1.27832 80.7579-1.27832 77.2776-2.10596 74.1296-3.76123 70.9816-5.41651 68.1533-7.89942 65.6448-11.21 63.3623-14.2197 61.6567-17.4803 60.528-20.9915 59.3993-24.5028 58.835-28.2272 58.835-32.1648 58.835-36.1024 59.3931-39.7892 60.5092-43.2253 61.6254-46.6613 63.2871-49.8341 65.4944-52.7436 67.9277-55.9289 70.7121-58.3178 73.8476-59.9104 76.9831-61.503 80.4697-62.2993 84.3074-62.2993 88.1396-62.2993 91.6399-61.503 94.8083-59.9104 97.9767-58.3178 100.826-55.9414 103.356-52.7812 105.685-49.8467 107.438-46.6613 108.615-43.2253 109.793-39.7892 110.381-36.1024 110.381-32.1648ZM102.279-28.6118C102.279-28.9381 102.279-29.2708 102.279-29.6099 102.279-29.9491 102.267-30.3068 102.241-30.6832L96.3762-30.2315 95.6995-33.207 101.715-34.1487C101.389-35.8061 100.926-37.3567 100.324-38.8005 99.7224-40.2443 98.983-41.5812 98.1057-42.8114L93.1052-36.8228 90.9246-38.5934 95.3235-45.9003C93.8697-47.1559 92.2655-48.085 90.511-48.6875 88.7564-49.29 86.8139-49.5788 84.6833-49.5537L86.9768-40.515 84.3074-39.5739 81.1116-48.763C79.2317-48.0851 77.5147-47.0871 75.9607-45.769 74.4067-44.4509 72.9905-42.8251 71.7122-40.8916L77.8406-34.0752 75.6223-31.4769 69.8699-37.4649C69.0678-35.5819 68.4788-33.7616 68.1028-32.0041 67.7268-30.2466 67.5639-28.5644 67.614-26.9575L67.6516-25.5288 74.3064-25.0776 74.3064-21.769 67.9524-22.145C68.1278-20.9168 68.4224-19.6761 68.8359-18.4229 69.2495-17.1696 69.7696-15.9163 70.3962-14.6631L75.5471-19.2876 77.6526-17.3701 72.3889-11.8057C73.4667-10.4271 74.651-9.28662 75.9419-8.38428 77.2327-7.48193 78.6427-6.79264 80.1716-6.31641L81.0364-13.7231 83.7058-13.3472 83.5178-5.75244 83.9314-5.75244C85.5105-5.75244 87.0583-5.99683 88.5747-6.4856 90.0911-6.97436 91.5762-7.74512 93.03-8.79785L88.7063-17.1821 91.2629-18.686 95.6995-11.2417C96.6269-12.2694 97.4415-13.3221 98.1433-14.3999 98.8451-15.4777 99.4342-16.5931 99.9104-17.7461L93.6692-23.1602 95.3235-24.8145 101.151-21.3931C101.527-22.4458 101.809-23.5737 101.997-24.7769 102.185-25.98 102.279-27.2583 102.279-28.6118ZM202.26-62.3933 195.267-51.9976 189.327-54.103 174.137-2.12427 171.355-0.827148 155.732-39.7407 136.352 1.27832 134.81-6.05322 129.659-4.21094 128.87-7.59473 134.246-9.32422 132.893-15.4526 127.742-13.8359 126.952-17.4829 132.329-18.874 130.975-25.8296 126.012-23.7241 124.471-27.3711 130.223-29.6646 128.87-36.4321 122.441-34.8906 121.501-38.2744 128.118-40.0039 126.764-47.2227 121.802-45.3052 120.824-48.4258 126.012-50.2681 124.471-58.6899 119.696-57.1108 118.343-61.0586 130.599-65.0815 143.759-25.6416 162.745-66.3975 176.92-31.0181 188.237-66.7734ZM174.419-23.9873 161.223-55.3813 158.704-50.4561 172.314-16.5806ZM256.119-39.4775C256.119-38.7005 256.106-37.9172 256.081-37.1277 256.056-36.3381 256.019-35.5298 255.969-34.7026L254.07 3.94775 212.881-37.8984 211.189-2.03027 196-1.91748 200.512-14.0991 207.806-14.4751 210.945-67.0742 247.169-22.4458C247.37-24.8513 247.583-27.2441 247.809-29.6243 248.034-32.0045 248.26-34.3972 248.486-36.8022 248.762-39.6589 248.963-42.2898 249.088-44.6951 249.213-47.1004 249.276-49.2801 249.276-51.2344 249.276-55.3185 248.8-58.9765 247.847-62.2086 246.895-65.4406 245.453-68.2343 243.523-70.5896L246.024-72.1499C249.376-68.4653 251.897-63.9035 253.586-58.4644 255.274-53.0252 256.119-46.6963 256.119-39.4775ZM224.367-40.3987C224.367-41.301 224.148-41.9778 223.709-42.429 223.271-42.8801 222.6-43.1057 221.698-43.1057 220.821-43.1057 220.156-42.8801 219.705-42.429 219.254-41.9778 219.029-41.301 219.029-40.3987 219.029-39.4963 219.254-38.8258 219.705-38.3872 220.156-37.9486 220.821-37.7292 221.698-37.7292 222.6-37.7292 223.271-37.9486 223.709-38.3872 224.148-38.8258 224.367-39.4963 224.367-40.3987ZM234.82-28.8938C234.82-29.8463 234.481-30.6734 233.804-31.3752 233.128-32.0771 232.326-32.428 231.398-32.428 230.396-32.428 229.55-32.0833 228.86-31.394 228.171-30.7048 227.826-29.8713 227.826-28.8938 227.826-27.9163 228.171-27.1016 228.86-26.45 229.55-25.7983 230.396-25.4724 231.398-25.4724 232.326-25.4724 233.128-25.8045 233.804-26.4688 234.481-27.133 234.82-27.9413 234.82-28.8938ZM244.257-17.5017C244.257-18.379 244.044-19.0432 243.617-19.4944 243.191-19.9456 242.515-20.1711 241.587-20.1711 240.685-20.1711 240.008-19.9456 239.557-19.4944 239.106-19.0432 238.88-18.379 238.88-17.5017 238.88-16.5994 239.106-15.9226 239.557-15.4714 240.008-15.0203 240.685-14.7947 241.587-14.7947 242.515-14.7947 243.191-15.0203 243.617-15.4714 244.044-15.9226 244.257-16.5994 244.257-17.5017ZM315.712-10.3499C315.712-8.24211 314.935-6.47316 313.381-5.04308 311.827-3.613 309.508-2.54665 306.425-1.84405 304.646-1.44261 302.164-1.10384 298.981-0.827736 295.798-0.551628 291.913-0.363444 287.326-0.263184 283.14-0.162923 279.712 0.00626629 277.043 0.244385 274.373 0.482503 272.475 0.827148 271.347 1.27832L273.527-30.6045 268.301-31.0181 268.677-37.4473 274.054-37.6353 274.542-44.7036 268.94-45.1172 269.316-51.4336 274.994-51.2456 275.445-58.6899 269.617-59.3291 269.692-65.1567 291.198-63.6152 280.558-7.29395 282.1-7.36914C283.102-7.41927 284.318-7.38794 285.747-7.27515 287.175-7.16235 288.805-7.03076 290.634-6.88037 292.614-6.70492 294.306-6.57332 295.71-6.4856 297.114-6.39787 298.254-6.354 299.131-6.354 303.092-6.354 306.062-6.91239 308.042-8.02916 310.022-9.14592 311.012-10.8342 311.012-13.094 311.012-13.8471 310.912-14.6568 310.711-15.5231 310.511-16.3894 310.21-17.3247 309.809-18.3289L312.629-19.8704C313.657-18.0148 314.427-16.2965 314.941-14.7157 315.455-13.1348 315.712-11.6796 315.712-10.3499ZM302.948-25.6604C302.948-24.3821 302.484-23.2729 301.556-22.333 300.629-21.3931 299.526-20.9231 298.248-20.9231 296.944-20.9231 295.829-21.3931 294.902-22.333 293.974-23.2729 293.51-24.3821 293.51-25.6604 293.51-26.8886 293.98-27.9601 294.92-28.875 295.86-29.7899 296.969-30.2473 298.248-30.2473 299.501-30.2473 300.598-29.7899 301.538-28.875 302.478-27.9601 302.948-26.8886 302.948-25.6604ZM371.381-32.1648C371.381-28.2022 370.818-24.4777 369.691-20.9915 368.563-17.5053 366.848-14.2448 364.543-11.21 362.039-7.89942 359.215-5.41651 356.071-3.76123 352.928-2.10596 349.428-1.27832 345.571-1.27832 341.758-1.27832 338.278-2.10596 335.13-3.76123 331.982-5.41651 329.153-7.89942 326.645-11.21 324.362-14.2197 322.657-17.4803 321.528-20.9915 320.399-24.5028 319.835-28.2272 319.835-32.1648 319.835-36.1024 320.393-39.7892 321.509-43.2253 322.625-46.6613 324.287-49.8341 326.494-52.7436 328.928-55.9289 331.712-58.3178 334.848-59.9104 337.983-61.503 341.47-62.2993 345.307-62.2993 349.14-62.2993 352.64-61.503 355.808-59.9104 358.977-58.3178 361.826-55.9414 364.356-52.7812 366.685-49.8467 368.438-46.6613 369.615-43.2253 370.793-39.7892 371.381-36.1024 371.381-32.1648ZM363.279-28.6118C363.279-28.9381 363.279-29.2708 363.279-29.6099 363.279-29.9491 363.267-30.3068 363.241-30.6832L357.376-30.2315 356.699-33.207 362.715-34.1487C362.389-35.8061 361.926-37.3567 361.324-38.8005 360.722-40.2443 359.983-41.5812 359.106-42.8114L354.105-36.8228 351.925-38.5934 356.323-45.9003C354.87-47.1559 353.266-48.085 351.511-48.6875 349.756-49.29 347.814-49.5788 345.683-49.5537L347.977-40.515 345.307-39.5739 342.112-48.763C340.232-48.0851 338.515-47.0871 336.961-45.769 335.407-44.4509 333.99-42.8251 332.712-40.8916L338.841-34.0752 336.622-31.4769 330.87-37.4649C330.068-35.5819 329.479-33.7616 329.103-32.0041 328.727-30.2466 328.564-28.5644 328.614-26.9575L328.652-25.5288 335.306-25.0776 335.306-21.769 328.952-22.145C329.128-20.9168 329.422-19.6761 329.836-18.4229 330.25-17.1696 330.77-15.9163 331.396-14.6631L336.547-19.2876 338.653-17.3701 333.389-11.8057C334.467-10.4271 335.651-9.28662 336.942-8.38428 338.233-7.48193 339.643-6.79264 341.172-6.31641L342.036-13.7231 344.706-13.3472 344.518-5.75244 344.931-5.75244C346.51-5.75244 348.058-5.99683 349.575-6.4856 351.091-6.97436 352.576-7.74512 354.03-8.79785L349.706-17.1821 352.263-18.686 356.699-11.2417C357.627-12.2694 358.441-13.3221 359.143-14.3999 359.845-15.4777 360.434-16.5931 360.91-17.7461L354.669-23.1602 356.323-24.8145 362.151-21.3931C362.527-22.4458 362.809-23.5737 362.997-24.7769 363.185-25.98 363.279-27.2583 363.279-28.6118ZM434.329-1.93628 427.674-0.375977 423.167-14.0991 396.224-14.4751 389.494 3.83496 375-6.14722 403.33-64.1792 413.782-65.0815ZM417.233-32.0332 410.173-57.2988 400.472-28.1982ZM420.951-20.7163 418.773-27.2583 398.555-22.2578 397.352-19.2124ZM393.141-24.7581 391.787-26.4875C389.983-23.4797 388.378-20.309 386.975-16.9753 385.571-13.6417 384.368-10.1326 383.365-6.448L386.824-4.98169C387.326-8.41561 388.109-11.7806 389.174-15.0767 390.24-18.3727 391.562-21.5999 393.141-24.7581ZM487.246-34.9846C487.246-29.5427 485.961-24.64 483.392-20.2763 480.823-15.9126 476.944-12.0882 471.755-8.80314 467.645-6.1948 463.058-4.06309 457.995-2.40801 452.931-0.752932 447.367 0.413183 441.301 1.09033L445.399-67.0742C451.992-66.6485 457.713-65.872 462.563-64.7446 467.413-63.6173 471.367-62.1519 474.425-60.3484 478.711-57.8179 481.919-54.436 484.05-50.2026 486.18-45.9691 487.246-40.8965 487.246-34.9846ZM475.628-34.8906 475.628-38.6504 470.251-38.8384 469.763-43.7637 474.951-43.9517 474.763-47.4106 469.199-47.9746 467.958-58.8779C466.078-59.7803 464.035-60.5573 461.83-61.209 459.624-61.8607 457.243-62.3745 454.686-62.7505L455.476-5.56445C457.957-6.09082 460.376-6.81771 462.732-7.74512 465.088-8.67253 467.369-9.77539 469.575-11.0537L469.951-25.2656 474.951-25.5288 475.44-29.3638 470.063-29.5518 470.139-34.5146ZM464.01-35.0222C464.01-32.8917 463.941-30.8614 463.803-28.9314 463.666-27.0014 463.459-25.1716 463.183-23.4421L461.266-24.4573C461.316-25.2594 461.347-26.074 461.36-26.9011 461.372-27.7283 461.378-28.5805 461.378-29.4578 461.378-32.2901 461.241-35.0347 460.965-37.6917 460.689-40.3485 460.276-42.8927 459.724-45.324L463.446-45.324C463.647-43.6446 463.791-41.9464 463.879-40.2295 463.966-38.5125 464.01-36.7768 464.01-35.0222Z" fill="#00A1D6" transform="matrix(1.00074 0 0 1.0001 18.8125 292)"/><g clip-path="url(#clip8)"><g clip-path="url(#clip9)"><g clip-path="url(#clip10)"><path d="M431.137 189.379C429.062 189.379 427.29 189.544 425.553 189.346 422.032 188.941 418.511 189.021 414.982 188.915 412.708 188.855 412.775 188.855 412.582 186.653 412.018 179.935 411.402 173.224 410.798 166.513 410.274 160.618 409.776 154.716 409.2 148.827 408.676 143.429 408.046 138.044 407.476 132.652 406.932 127.586 406.428 122.513 405.865 117.453 405.149 111.084 404.41 104.718 403.649 98.3542 402.966 92.7307 402.29 87.0938 401.533 81.4769 400.349 72.7682 399.138 64.063 397.9 55.3618 396.574 46.0909 394.982 36.8664 393.317 27.6552 393.019 26.004 393.059 25.9442 394.637 25.679 401.202 24.5583 407.801 23.6033 414.479 23.7492 415.202 23.7691 415.931 23.7823 416.648 23.8752 417.821 24.0211 418.431 24.5914 418.497 25.9575 418.729 30.7189 419.061 35.4804 419.413 40.2353 419.976 48.0274 420.586 55.8194 421.17 63.6048 421.541 68.6183 421.859 73.6185 422.238 78.6187 422.841 86.6562 423.478 94.6869 424.088 102.724 424.459 107.639 424.784 112.565 425.162 117.48 425.739 124.694 426.369 131.904 426.952 139.112 427.323 143.7 427.656 148.297 428.047 152.885 428.623 159.683 429.247 166.48 429.837 173.277 430.282 178.583 430.686 183.901 431.137 189.379ZM176.963 23.8221C177.925 23.8221 179.377 23.7161 180.809 23.8487 182.633 24.0145 182.985 24.4853 183.097 26.3156 183.621 34.6846 184.111 43.0603 184.669 51.436 185.279 60.4681 185.949 69.4871 186.618 78.5059 187.235 86.7888 187.852 95.0716 188.515 103.355 189.238 112.453 190.04 121.538 190.769 130.637 191.32 137.606 191.791 144.576 192.361 151.552 192.905 158.025 193.541 164.484 194.125 170.95 194.622 176.514 195.126 182.084 195.611 187.655 195.763 189.418 195.637 189.531 193.734 189.485 188.754 189.365 183.8 188.782 178.819 188.921 177.679 188.955 177.347 188.431 177.155 187.35 176.744 184.996 176.81 182.601 176.558 180.22 175.875 173.928 175.484 167.607 174.907 161.3 174.39 155.571 173.767 149.855 173.176 144.132 172.652 138.9 172.135 133.667 171.578 128.428 171.021 123.289 170.43 118.142 169.847 112.997 169.31 108.262 168.786 103.527 168.216 98.7919 167.374 91.8553 166.538 84.9187 165.623 77.9954 164.781 71.6423 163.825 65.3092 162.931 58.9628 161.71 50.3418 160.338 41.7406 158.819 33.1727 158.471 31.2325 158.105 29.296 157.718 27.3634 157.519 26.3885 157.698 25.8248 158.813 25.6723 161.744 25.2811 164.668 24.671 167.612 24.3859 170.556 24.114 173.501 23.5636 176.963 23.8221ZM385.518 107.433C391.129 107.433 391.262 107.473 392.163 112.519 393.271 118.746 394.047 125.027 394.783 131.306 395.559 137.997 396.342 144.689 397.057 151.387 397.634 156.778 398.119 162.183 398.662 167.574 399.233 173.224 399.836 178.854 400.427 184.498 400.751 187.688 401.056 190.877 401.421 194.061 401.527 194.982 401.249 195.474 400.34 195.58 398.424 195.798 396.521 196.05 394.61 196.256 391.109 196.634 387.601 197.005 384.092 197.33 382.282 197.496 382.163 197.396 381.825 195.646 378.747 179.763 375.664 163.894 372.614 148.005 370.584 137.441 368.608 126.87 366.618 116.306 366.351 114.852 366.104 113.396 365.876 111.936 365.743 111.1 365.969 110.563 366.917 110.338 373.237 108.859 379.623 107.718 385.518 107.433ZM149.807 107.433C155.808 107.433 155.781 107.453 156.71 112.898 158.142 121.326 159.157 129.801 160.066 138.302 160.954 146.553 161.922 154.796 162.792 163.045 163.381 168.689 163.845 174.345 164.396 179.982 164.787 183.994 165.251 187.993 165.676 191.998 165.729 192.49 165.756 192.98 165.789 193.477 165.875 195.44 165.789 195.599 163.898 195.792 160.152 196.183 156.399 196.508 152.651 196.879 151.292 197.012 149.939 197.211 148.593 197.343 146.803 197.509 146.743 197.502 146.391 195.692 145.131 189.332 143.912 182.96 142.678 176.6 139.719 161.281 136.729 145.975 133.791 130.657 132.617 124.529 131.609 118.375 130.456 112.241 130.243 111.12 130.403 110.596 131.563 110.324 137.823 108.866 144.124 107.725 149.807 107.433ZM229.021 171.666 229.021 197.376C229.021 197.622 228.994 197.874 229.028 198.12 229.153 199.366 228.695 199.916 227.409 199.863 225.718 199.791 224.04 199.837 222.349 199.877 218.821 199.943 215.286 199.804 211.765 200.208 209.815 200.433 209.855 200.314 209.663 198.259 209.086 191.786 208.456 185.32 207.866 178.848 207.323 172.873 206.831 166.885 206.274 160.91 205.71 154.763 205.081 148.635 204.51 142.494 204.119 138.395 203.774 134.303 203.43 130.205 202.978 124.873 202.561 119.549 202.09 114.217 201.891 111.969 202.057 111.651 204.285 111.419 210.034 110.785 215.823 110.606 221.6 110.881 223.039 110.961 224.471 111.239 225.864 111.578 227.622 111.995 227.814 112.254 227.907 114.09 228.099 117.791 228.291 121.492 228.39 125.199 228.503 129.317 228.41 133.442 228.563 137.56 228.948 148.92 228.888 160.293 229.021 171.666ZM464.262 172.833 464.262 197.178C464.262 197.588 464.249 198 464.268 198.418 464.355 199.486 463.858 199.863 462.843 199.857 460.349 199.837 457.862 199.857 455.375 199.89 452.564 199.916 449.758 199.903 446.953 200.208 445.103 200.42 445.09 200.281 444.924 198.444 444.162 190.016 443.359 181.586 442.59 173.145 441.887 165.366 441.237 157.581 440.521 149.795 439.785 141.764 438.982 133.753 438.26 125.729 437.901 121.71 437.603 117.692 437.305 113.673 437.185 111.922 437.377 111.611 439.353 111.452 442.789 111.179 446.21 110.715 449.672 110.775 453.121 110.841 456.576 110.649 460.005 111.305 462.909 111.863 463.055 112.029 463.227 115.132 463.724 124.264 463.572 133.422 463.897 142.554 464.229 152.276 463.997 161.997 464.262 172.833ZM379.663 63.2533C381.693 63.3727 383.291 63.2733 384.882 63.6247 385.897 63.8569 386.407 64.3144 386.506 65.402 386.985 70.6343 387.501 75.8732 388.025 81.1122 388.443 85.363 388.887 89.6139 389.318 93.8646L389.358 94.11C389.704 96.7892 389.624 96.8621 387.018 97.008 384.696 97.134 382.382 97.3396 380.06 97.4789 378.535 97.5717 378.052 97.8303 377.8 95.6087 376.931 87.7702 375.922 79.9516 374.961 72.1198 374.694 69.9186 374.398 67.7212 374.073 65.528 373.88 64.2879 374.364 63.6048 375.525 63.5053 377.05 63.3661 378.575 63.3263 379.663 63.2533ZM144.713 63.2866C146.278 63.3727 147.891 63.2533 149.469 63.6181 150.37 63.8237 150.828 64.2016 150.914 65.2296 151.106 67.6832 151.484 70.1303 151.716 72.584 152.453 80.1108 153.148 87.6442 153.839 95.1777 153.984 96.8157 153.951 96.8488 152.42 96.9616 149.701 97.1606 146.975 97.3595 144.249 97.4722 142.665 97.5451 142.465 97.3528 142.266 95.7347 141.577 90.1908 140.927 84.6402 140.264 79.0896 139.726 74.5138 139.276 69.938 138.626 65.3755 138.447 64.1155 138.858 63.7706 139.866 63.5651 141.464 63.2401 143.069 63.3462 144.713 63.2866ZM227.455 84.0168C227.455 88.7849 227.468 93.5464 227.448 98.321 227.448 100.463 227.422 100.476 225.294 100.449 222.733 100.463 220.173 100.33 217.627 100.052 215.983 99.8463 215.95 99.8994 215.903 98.1553 215.738 92.3262 215.565 86.497 215.446 80.6678 215.359 76.7221 215.313 72.7896 215.074 68.8438 214.948 66.8079 215.061 66.788 217.018 66.7614 219.902 66.7283 222.78 66.8609 225.645 67.2986 227.369 67.5639 227.448 67.5639 227.455 69.4738 227.468 74.3214 227.468 79.1691 227.468 84.0234L227.455 84.0234ZM462.816 84.1428C462.816 88.9175 462.83 93.6856 462.81 98.4537 462.81 100.456 462.777 100.469 460.767 100.456 458.128 100.432 455.491 100.308 452.862 100.085 451.555 99.9855 451.171 99.4351 451.257 98.2481 451.27 98.0823 451.257 97.9165 451.257 97.7507 451.058 88.5462 450.859 79.3482 450.674 70.1435 450.667 69.6528 450.641 69.1621 450.661 68.6647 450.687 66.8079 450.694 66.7614 452.557 66.7748 455.123 66.788 457.67 66.9207 460.23 67.1726 463.353 67.4843 462.803 67.869 462.816 70.3359 462.83 74.9316 462.823 79.5405 462.816 84.1428ZM138.274 95.3368C138.334 97.9563 138.334 97.9496 135.828 98.5598 134.123 98.9776 132.419 99.4351 130.701 99.8131 129.236 100.145 128.977 99.959 128.725 98.52 126.974 88.7583 125.23 78.9901 123.492 69.2218 123.141 67.1992 123.234 67.0732 125.224 66.7217 127.671 66.2906 130.11 65.8662 132.558 65.4882 134.116 65.2428 134.315 65.3291 134.627 67.0467 135.243 70.5149 135.828 73.9965 136.285 77.4913 136.994 83.0221 137.578 88.5727 138.214 94.11 138.267 94.5145 138.254 94.9323 138.274 95.3368ZM358.867 67.0002C362.069 66.4763 365.299 65.9458 368.529 65.4352 369.689 65.2561 370.041 65.9856 370.193 67.0201 370.744 70.8399 371.433 74.6332 371.884 78.4595 372.547 84.0035 373.456 89.521 373.629 95.1113 373.642 95.6817 373.635 96.2653 373.648 96.8356 373.682 97.7242 373.237 98.1818 372.415 98.3742 370.226 98.8648 368.038 99.3556 365.856 99.8795 364.808 100.131 364.457 99.6871 364.285 98.6659 363.628 94.7798 362.872 90.9136 362.202 87.0408 361.068 80.6612 359.968 74.275 358.867 67.8889 358.84 67.6567 358.867 67.4113 358.867 67.0002ZM211.553 89.395C211.461 92.7903 211.666 95.748 211.201 98.7057 211.062 99.6407 210.79 100.244 209.782 100.33 207.621 100.509 205.465 100.682 203.317 100.901 202.276 101.014 201.984 100.562 201.811 99.5412 201.327 96.5239 201.413 93.4667 201.122 90.4362 200.572 84.7131 200.339 78.9503 199.968 73.2073 199.875 71.8081 199.736 70.4221 199.623 69.0228 199.563 68.2403 199.875 67.8026 200.711 67.7695 203.509 67.6567 206.294 67.1461 209.106 67.2456 210.75 67.3052 210.89 67.4113 211.009 69.0692 211.082 70.2165 211.062 71.3771 211.088 72.5309L211.553 89.395ZM446.814 86.1058C446.814 90.0581 446.861 94.0105 446.808 97.963 446.774 100.019 446.543 100.198 444.599 100.376 442.676 100.555 440.766 100.702 438.85 100.908 437.768 101.02 437.265 100.702 437.199 99.4617 436.92 94.2095 436.542 88.9573 436.177 83.7117 435.892 79.3615 435.567 75.0178 435.262 70.674 435.228 70.1768 435.255 69.6794 435.222 69.1886 435.175 68.3199 435.44 67.8092 436.416 67.7761 439.135 67.6832 441.834 67.1593 444.572 67.2588 446.243 67.3186 446.271 67.3451 446.397 69.0826 446.801 74.7458 446.841 80.4225 446.814 86.1058ZM130.243 156.752C133.679 160.532 133.851 165.008 132.717 169.69 131.576 174.372 128.977 178.231 125.827 181.693 120.541 187.476 114.156 191.746 107.365 195.374 95.6732 201.62 83.2788 205.772 70.3472 208.226 61.0432 209.984 51.6794 211.337 42.2162 211.853 39.3314 212.012 36.4534 212.145 33.5687 212.125 31.4797 212.125 29.3842 212.185 27.3018 212.112 25.5312 212.046 25.2725 211.741 25.1266 209.89 24.5895 203.253 24.132 196.608 23.5417 189.969 22.852 182.277 22.043 174.59 21.3003 166.898 20.7565 161.334 20.2856 155.757 19.6888 150.206 18.9991 143.667 18.2232 137.143 17.4672 130.604 16.7775 124.569 16.1143 118.521 15.3849 112.479 14.5692 105.788 13.727 99.1102 12.8317 92.4323 11.9555 86.0011 11.0426 79.575 10.0929 73.1543 8.54918 62.5866 6.86905 52.0394 5.05293 41.5151 3.58335 32.9339 1.94726 24.382 0.145581 15.8642-0.0931542 14.7236 0.251686 14.2661 1.25305 13.8483 10.8489 9.86935 20.4116 5.81747 30.0008 1.81864 31.7847 1.07591 33.6151 0.452537 35.5117 0.101065 36.8248-0.144303 37.1629 0.127591 37.1231 1.44727 37.0237 4.82273 37.1629 8.21146 36.8314 11.5737 36.7504 12.4756 36.7062 13.3804 36.6987 14.286 36.5462 26.3885 36.4003 38.4978 36.7186 50.607 36.9971 61.2175 37.5542 71.8214 38.171 82.4252 38.655 90.7942 39.3513 99.1632 40.0676 107.519 40.7705 115.709 41.6259 123.886 42.4284 132.076 42.5809 133.634 42.7201 133.78 44.4908 133.541 47.98 133.017 51.5003 132.726 55.0284 132.672 65.9903 132.646 76.7733 134.151 87.4368 136.678 96.7674 138.893 105.846 141.844 114.547 145.969 118.857 148.012 122.982 150.372 126.742 153.37 128.022 154.377 129.163 155.538 130.243 156.752ZM363.833 154.763C368.078 158.482 369.623 163.039 368.416 168.675 367.414 173.324 365.146 177.23 362.122 180.725 357.269 186.342 351.373 190.612 344.993 194.18 332.486 201.183 319.163 205.732 305.157 208.358 297.513 209.808 289.803 210.884 282.053 211.582 277.663 211.959 273.253 212.43 268.326 212.125L262.569 212.125C261.449 212.125 260.812 211.774 260.719 210.441 260.295 204.619 259.804 198.802 259.28 192.987 258.724 186.845 258.106 180.705 257.523 174.564 256.992 168.921 256.502 163.264 255.925 157.621 255.394 152.302 254.784 146.997 254.207 141.685 253.67 136.698 253.152 131.711 252.562 126.731 251.853 120.696 251.104 114.661 250.354 108.626 249.651 102.996 248.955 97.3727 248.206 91.7491 247.409 85.7218 246.569 79.7002 245.686 73.6849 244.505 65.8795 243.238 58.1006 241.992 50.3086 240.253 39.2741 238.24 28.2844 235.957 17.3497 235.865 16.8657 235.818 16.3683 235.672 15.8975 235.327 14.8364 235.659 14.2727 236.7 13.8616 246.893 9.87598 256.76 5.0681 267.046 1.27485 268.392 0.770852 269.752 0.207169 271.204 0.0612756 272.51-0.0713555 272.842 0.140854 272.716 1.53349 272.026 9.08683 272.424 16.68 272.065 24.24 271.774 30.4073 271.807 36.5945 272.119 42.7685 272.192 44.3335 272.252 45.9052 272.239 47.4636 272.159 54.8777 272.55 62.2851 272.928 69.686 273.412 79.4676 274.122 89.2292 274.845 98.9975 275.369 106.047 276.051 113.083 276.715 120.126 277.066 123.979 277.444 127.825 277.922 131.658 278.18 133.773 278.286 133.793 280.362 133.515 284.022 133.018 287.69 132.613 291.39 132.666 304.374 132.831 317.101 134.881 329.588 138.442 338.043 140.842 346.273 143.841 354.045 148.038 357.552 149.902 360.835 152.159 363.833 154.763ZM63.9876 191.296C68.7888 189.001 92.0987 170.784 93.949 167.813 82.6355 162.939 71.2823 158.409 59.0736 154.703L63.9876 191.296ZM328.745 169.007C329.343 168.364 329.277 167.866 328.467 167.508 326.856 166.771 325.258 165.99 323.627 165.319 314.919 161.759 306.172 158.31 297.199 155.498 296.418 155.26 295.615 154.716 294.613 155.18L299.448 191.137C300.164 191.296 300.443 190.963 300.761 190.738 308.911 184.757 317.114 178.848 324.94 172.416 326.259 171.341 327.566 170.26 328.745 169.007Z" fill="#00A1D6" transform="matrix(1 0 0 1.00353 149.742 6.82843)"/></g></g></g></g></g></g></g></g></g><g clip-path="url(#clip11)"><g clip-path="url(#clip12)"><g clip-path="url(#clip13)"><g clip-path="url(#clip14)"><text fill="#00A1D6" font-family="Jokerman,Jokerman_MSFontService,Arial" font-weight="400" font-size="77" transform="matrix(1.00074 0 0 1.0001 407.984 570)">DOWNLOAD</text><g clip-path="url(#clip15)"><g clip-path="url(#clip16)"><g clip-path="url(#clip17)"><path d="M431.137 189.379C429.062 189.379 427.29 189.544 425.553 189.346 422.032 188.941 418.511 189.021 414.982 188.915 412.708 188.855 412.775 188.855 412.582 186.653 412.018 179.935 411.402 173.224 410.798 166.513 410.274 160.618 409.776 154.716 409.2 148.827 408.676 143.429 408.046 138.044 407.476 132.652 406.932 127.586 406.428 122.513 405.865 117.453 405.149 111.084 404.41 104.718 403.649 98.3542 402.966 92.7307 402.29 87.0938 401.533 81.4769 400.349 72.7682 399.138 64.063 397.9 55.3618 396.574 46.0909 394.982 36.8664 393.317 27.6552 393.019 26.004 393.059 25.9442 394.637 25.679 401.202 24.5583 407.801 23.6033 414.479 23.7492 415.202 23.7691 415.931 23.7823 416.648 23.8752 417.821 24.0211 418.431 24.5914 418.497 25.9575 418.729 30.7189 419.061 35.4804 419.413 40.2353 419.976 48.0274 420.586 55.8194 421.17 63.6048 421.541 68.6183 421.859 73.6185 422.238 78.6187 422.841 86.6562 423.478 94.6869 424.088 102.724 424.459 107.639 424.784 112.565 425.162 117.48 425.739 124.694 426.369 131.904 426.952 139.112 427.323 143.7 427.656 148.297 428.047 152.885 428.623 159.683 429.247 166.48 429.837 173.277 430.282 178.583 430.686 183.901 431.137 189.379ZM176.963 23.8221C177.925 23.8221 179.377 23.7161 180.809 23.8487 182.633 24.0145 182.985 24.4853 183.097 26.3156 183.621 34.6846 184.111 43.0603 184.669 51.436 185.279 60.4681 185.949 69.4871 186.618 78.5059 187.235 86.7888 187.852 95.0716 188.515 103.355 189.238 112.453 190.04 121.538 190.769 130.637 191.32 137.606 191.791 144.576 192.361 151.552 192.905 158.025 193.541 164.484 194.125 170.95 194.622 176.514 195.126 182.084 195.611 187.655 195.763 189.418 195.637 189.531 193.734 189.485 188.754 189.365 183.8 188.782 178.819 188.921 177.679 188.955 177.347 188.431 177.155 187.35 176.744 184.996 176.81 182.601 176.558 180.22 175.875 173.928 175.484 167.607 174.907 161.3 174.39 155.571 173.767 149.855 173.176 144.132 172.652 138.9 172.135 133.667 171.578 128.428 171.021 123.289 170.43 118.142 169.847 112.997 169.31 108.262 168.786 103.527 168.216 98.7919 167.374 91.8553 166.538 84.9187 165.623 77.9954 164.781 71.6423 163.825 65.3092 162.931 58.9628 161.71 50.3418 160.338 41.7406 158.819 33.1727 158.471 31.2325 158.105 29.296 157.718 27.3634 157.519 26.3885 157.698 25.8248 158.813 25.6723 161.744 25.2811 164.668 24.671 167.612 24.3859 170.556 24.114 173.501 23.5636 176.963 23.8221ZM385.518 107.433C391.129 107.433 391.262 107.473 392.163 112.519 393.271 118.746 394.047 125.027 394.783 131.306 395.559 137.997 396.342 144.689 397.057 151.387 397.634 156.778 398.119 162.183 398.662 167.574 399.233 173.224 399.836 178.854 400.427 184.498 400.751 187.688 401.056 190.877 401.421 194.061 401.527 194.982 401.249 195.474 400.34 195.58 398.424 195.798 396.521 196.05 394.61 196.256 391.109 196.634 387.601 197.005 384.092 197.33 382.282 197.496 382.163 197.396 381.825 195.646 378.747 179.763 375.664 163.894 372.614 148.005 370.584 137.441 368.608 126.87 366.618 116.306 366.351 114.852 366.104 113.396 365.876 111.936 365.743 111.1 365.969 110.563 366.917 110.338 373.237 108.859 379.623 107.718 385.518 107.433ZM149.807 107.433C155.808 107.433 155.781 107.453 156.71 112.898 158.142 121.326 159.157 129.801 160.066 138.302 160.954 146.553 161.922 154.796 162.792 163.045 163.381 168.689 163.845 174.345 164.396 179.982 164.787 183.994 165.251 187.993 165.676 191.998 165.729 192.49 165.756 192.98 165.789 193.477 165.875 195.44 165.789 195.599 163.898 195.792 160.152 196.183 156.399 196.508 152.651 196.879 151.292 197.012 149.939 197.211 148.593 197.343 146.803 197.509 146.743 197.502 146.391 195.692 145.131 189.332 143.912 182.96 142.678 176.6 139.719 161.281 136.729 145.975 133.791 130.657 132.617 124.529 131.609 118.375 130.456 112.241 130.243 111.12 130.403 110.596 131.563 110.324 137.823 108.866 144.124 107.725 149.807 107.433ZM229.021 171.666 229.021 197.376C229.021 197.622 228.994 197.874 229.028 198.12 229.153 199.366 228.695 199.916 227.409 199.863 225.718 199.791 224.04 199.837 222.349 199.877 218.821 199.943 215.286 199.804 211.765 200.208 209.815 200.433 209.855 200.314 209.663 198.259 209.086 191.786 208.456 185.32 207.866 178.848 207.323 172.873 206.831 166.885 206.274 160.91 205.71 154.763 205.081 148.635 204.51 142.494 204.119 138.395 203.774 134.303 203.43 130.205 202.978 124.873 202.561 119.549 202.09 114.217 201.891 111.969 202.057 111.651 204.285 111.419 210.034 110.785 215.823 110.606 221.6 110.881 223.039 110.961 224.471 111.239 225.864 111.578 227.622 111.995 227.814 112.254 227.907 114.09 228.099 117.791 228.291 121.492 228.39 125.199 228.503 129.317 228.41 133.442 228.563 137.56 228.948 148.92 228.888 160.293 229.021 171.666ZM464.262 172.833 464.262 197.178C464.262 197.588 464.249 198 464.268 198.418 464.355 199.486 463.858 199.863 462.843 199.857 460.349 199.837 457.862 199.857 455.375 199.89 452.564 199.916 449.758 199.903 446.953 200.208 445.103 200.42 445.09 200.281 444.924 198.444 444.162 190.016 443.359 181.586 442.59 173.145 441.887 165.366 441.237 157.581 440.521 149.795 439.785 141.764 438.982 133.753 438.26 125.729 437.901 121.71 437.603 117.692 437.305 113.673 437.185 111.922 437.377 111.611 439.353 111.452 442.789 111.179 446.21 110.715 449.672 110.775 453.121 110.841 456.576 110.649 460.005 111.305 462.909 111.863 463.055 112.029 463.227 115.132 463.724 124.264 463.572 133.422 463.897 142.554 464.229 152.276 463.997 161.997 464.262 172.833ZM379.663 63.2533C381.693 63.3727 383.291 63.2733 384.882 63.6247 385.897 63.8569 386.407 64.3144 386.506 65.402 386.985 70.6343 387.501 75.8732 388.025 81.1122 388.443 85.363 388.887 89.6139 389.318 93.8646L389.358 94.11C389.704 96.7892 389.624 96.8621 387.018 97.008 384.696 97.134 382.382 97.3396 380.06 97.4789 378.535 97.5717 378.052 97.8303 377.8 95.6087 376.931 87.7702 375.922 79.9516 374.961 72.1198 374.694 69.9186 374.398 67.7212 374.073 65.528 373.88 64.2879 374.364 63.6048 375.525 63.5053 377.05 63.3661 378.575 63.3263 379.663 63.2533ZM144.713 63.2866C146.278 63.3727 147.891 63.2533 149.469 63.6181 150.37 63.8237 150.828 64.2016 150.914 65.2296 151.106 67.6832 151.484 70.1303 151.716 72.584 152.453 80.1108 153.148 87.6442 153.839 95.1777 153.984 96.8157 153.951 96.8488 152.42 96.9616 149.701 97.1606 146.975 97.3595 144.249 97.4722 142.665 97.5451 142.465 97.3528 142.266 95.7347 141.577 90.1908 140.927 84.6402 140.264 79.0896 139.726 74.5138 139.276 69.938 138.626 65.3755 138.447 64.1155 138.858 63.7706 139.866 63.5651 141.464 63.2401 143.069 63.3462 144.713 63.2866ZM227.455 84.0168C227.455 88.7849 227.468 93.5464 227.448 98.321 227.448 100.463 227.422 100.476 225.294 100.449 222.733 100.463 220.173 100.33 217.627 100.052 215.983 99.8463 215.95 99.8994 215.903 98.1553 215.738 92.3262 215.565 86.497 215.446 80.6678 215.359 76.7221 215.313 72.7896 215.074 68.8438 214.948 66.8079 215.061 66.788 217.018 66.7614 219.902 66.7283 222.78 66.8609 225.645 67.2986 227.369 67.5639 227.448 67.5639 227.455 69.4738 227.468 74.3214 227.468 79.1691 227.468 84.0234L227.455 84.0234ZM462.816 84.1428C462.816 88.9175 462.83 93.6856 462.81 98.4537 462.81 100.456 462.777 100.469 460.767 100.456 458.128 100.432 455.491 100.308 452.862 100.085 451.555 99.9855 451.171 99.4351 451.257 98.2481 451.27 98.0823 451.257 97.9165 451.257 97.7507 451.058 88.5462 450.859 79.3482 450.674 70.1435 450.667 69.6528 450.641 69.1621 450.661 68.6647 450.687 66.8079 450.694 66.7614 452.557 66.7748 455.123 66.788 457.67 66.9207 460.23 67.1726 463.353 67.4843 462.803 67.869 462.816 70.3359 462.83 74.9316 462.823 79.5405 462.816 84.1428ZM138.274 95.3368C138.334 97.9563 138.334 97.9496 135.828 98.5598 134.123 98.9776 132.419 99.4351 130.701 99.8131 129.236 100.145 128.977 99.959 128.725 98.52 126.974 88.7583 125.23 78.9901 123.492 69.2218 123.141 67.1992 123.234 67.0732 125.224 66.7217 127.671 66.2906 130.11 65.8662 132.558 65.4882 134.116 65.2428 134.315 65.3291 134.627 67.0467 135.243 70.5149 135.828 73.9965 136.285 77.4913 136.994 83.0221 137.578 88.5727 138.214 94.11 138.267 94.5145 138.254 94.9323 138.274 95.3368ZM358.867 67.0002C362.069 66.4763 365.299 65.9458 368.529 65.4352 369.689 65.2561 370.041 65.9856 370.193 67.0201 370.744 70.8399 371.433 74.6332 371.884 78.4595 372.547 84.0035 373.456 89.521 373.629 95.1113 373.642 95.6817 373.635 96.2653 373.648 96.8356 373.682 97.7242 373.237 98.1818 372.415 98.3742 370.226 98.8648 368.038 99.3556 365.856 99.8795 364.808 100.131 364.457 99.6871 364.285 98.6659 363.628 94.7798 362.872 90.9136 362.202 87.0408 361.068 80.6612 359.968 74.275 358.867 67.8889 358.84 67.6567 358.867 67.4113 358.867 67.0002ZM211.553 89.395C211.461 92.7903 211.666 95.748 211.201 98.7057 211.062 99.6407 210.79 100.244 209.782 100.33 207.621 100.509 205.465 100.682 203.317 100.901 202.276 101.014 201.984 100.562 201.811 99.5412 201.327 96.5239 201.413 93.4667 201.122 90.4362 200.572 84.7131 200.339 78.9503 199.968 73.2073 199.875 71.8081 199.736 70.4221 199.623 69.0228 199.563 68.2403 199.875 67.8026 200.711 67.7695 203.509 67.6567 206.294 67.1461 209.106 67.2456 210.75 67.3052 210.89 67.4113 211.009 69.0692 211.082 70.2165 211.062 71.3771 211.088 72.5309L211.553 89.395ZM446.814 86.1058C446.814 90.0581 446.861 94.0105 446.808 97.963 446.774 100.019 446.543 100.198 444.599 100.376 442.676 100.555 440.766 100.702 438.85 100.908 437.768 101.02 437.265 100.702 437.199 99.4617 436.92 94.2095 436.542 88.9573 436.177 83.7117 435.892 79.3615 435.567 75.0178 435.262 70.674 435.228 70.1768 435.255 69.6794 435.222 69.1886 435.175 68.3199 435.44 67.8092 436.416 67.7761 439.135 67.6832 441.834 67.1593 444.572 67.2588 446.243 67.3186 446.271 67.3451 446.397 69.0826 446.801 74.7458 446.841 80.4225 446.814 86.1058ZM130.243 156.752C133.679 160.532 133.851 165.008 132.717 169.69 131.576 174.372 128.977 178.231 125.827 181.693 120.541 187.476 114.156 191.746 107.365 195.374 95.6732 201.62 83.2788 205.772 70.3472 208.226 61.0432 209.984 51.6794 211.337 42.2162 211.853 39.3314 212.012 36.4534 212.145 33.5687 212.125 31.4797 212.125 29.3842 212.185 27.3018 212.112 25.5312 212.046 25.2725 211.741 25.1266 209.89 24.5895 203.253 24.132 196.608 23.5417 189.969 22.852 182.277 22.043 174.59 21.3003 166.898 20.7565 161.334 20.2856 155.757 19.6888 150.206 18.9991 143.667 18.2232 137.143 17.4672 130.604 16.7775 124.569 16.1143 118.521 15.3849 112.479 14.5692 105.788 13.727 99.1102 12.8317 92.4323 11.9555 86.0011 11.0426 79.575 10.0929 73.1543 8.54918 62.5866 6.86905 52.0394 5.05293 41.5151 3.58335 32.9339 1.94726 24.382 0.145581 15.8642-0.0931542 14.7236 0.251686 14.2661 1.25305 13.8483 10.8489 9.86935 20.4116 5.81747 30.0008 1.81864 31.7847 1.07591 33.6151 0.452537 35.5117 0.101065 36.8248-0.144303 37.1629 0.127591 37.1231 1.44727 37.0237 4.82273 37.1629 8.21146 36.8314 11.5737 36.7504 12.4756 36.7062 13.3804 36.6987 14.286 36.5462 26.3885 36.4003 38.4978 36.7186 50.607 36.9971 61.2175 37.5542 71.8214 38.171 82.4252 38.655 90.7942 39.3513 99.1632 40.0676 107.519 40.7705 115.709 41.6259 123.886 42.4284 132.076 42.5809 133.634 42.7201 133.78 44.4908 133.541 47.98 133.017 51.5003 132.726 55.0284 132.672 65.9903 132.646 76.7733 134.151 87.4368 136.678 96.7674 138.893 105.846 141.844 114.547 145.969 118.857 148.012 122.982 150.372 126.742 153.37 128.022 154.377 129.163 155.538 130.243 156.752ZM363.833 154.763C368.078 158.482 369.623 163.039 368.416 168.675 367.414 173.324 365.146 177.23 362.122 180.725 357.269 186.342 351.373 190.612 344.993 194.18 332.486 201.183 319.163 205.732 305.157 208.358 297.513 209.808 289.803 210.884 282.053 211.582 277.663 211.959 273.253 212.43 268.326 212.125L262.569 212.125C261.449 212.125 260.812 211.774 260.719 210.441 260.295 204.619 259.804 198.802 259.28 192.987 258.724 186.845 258.106 180.705 257.523 174.564 256.992 168.921 256.502 163.264 255.925 157.621 255.394 152.302 254.784 146.997 254.207 141.685 253.67 136.698 253.152 131.711 252.562 126.731 251.853 120.696 251.104 114.661 250.354 108.626 249.651 102.996 248.955 97.3727 248.206 91.7491 247.409 85.7218 246.569 79.7002 245.686 73.6849 244.505 65.8795 243.238 58.1006 241.992 50.3086 240.253 39.2741 238.24 28.2844 235.957 17.3497 235.865 16.8657 235.818 16.3683 235.672 15.8975 235.327 14.8364 235.659 14.2727 236.7 13.8616 246.893 9.87598 256.76 5.0681 267.046 1.27485 268.392 0.770852 269.752 0.207169 271.204 0.0612756 272.51-0.0713555 272.842 0.140854 272.716 1.53349 272.026 9.08683 272.424 16.68 272.065 24.24 271.774 30.4073 271.807 36.5945 272.119 42.7685 272.192 44.3335 272.252 45.9052 272.239 47.4636 272.159 54.8777 272.55 62.2851 272.928 69.686 273.412 79.4676 274.122 89.2292 274.845 98.9975 275.369 106.047 276.051 113.083 276.715 120.126 277.066 123.979 277.444 127.825 277.922 131.658 278.18 133.773 278.286 133.793 280.362 133.515 284.022 133.018 287.69 132.613 291.39 132.666 304.374 132.831 317.101 134.881 329.588 138.442 338.043 140.842 346.273 143.841 354.045 148.038 357.552 149.902 360.835 152.159 363.833 154.763ZM63.9876 191.296C68.7888 189.001 92.0987 170.784 93.949 167.813 82.6355 162.939 71.2823 158.409 59.0736 154.703L63.9876 191.296ZM328.745 169.007C329.343 168.364 329.277 167.866 328.467 167.508 326.856 166.771 325.258 165.99 323.627 165.319 314.919 161.759 306.172 158.31 297.199 155.498 296.418 155.26 295.615 154.716 294.613 155.18L299.448 191.137C300.164 191.296 300.443 190.963 300.761 190.738 308.911 184.757 317.114 178.848 324.94 172.416 326.259 171.341 327.566 170.26 328.745 169.007Z" fill="#00A1D6" transform="matrix(1 0 0 1.00353 538.914 285)"/></g></g></g></g></g></g></g></g></svg>